<?xml version="1.0" standalone="no"?>
<!DOCTYPE svg PUBLIC "-//W3C//DTD SVG 20010904//EN"
 "http://www.w3.org/TR/2001/REC-SVG-20010904/DTD/svg10.dtd">
<svg version="1.0" xmlns="http://www.w3.org/2000/svg"
 width="500.000000pt" height="500.000000pt" viewBox="0 0 500.000000 500.000000"
 preserveAspectRatio="xMidYMid meet">

<g transform="translate(0.000000,500.000000) scale(0.100000,-0.100000)"
fill="#000000" stroke="none">
<path d="M2190 4724 c-728 -95 -1331 -523 -1683 -1194 -53 -101 -147 -326
-147 -352 0 -23 16 6 44 79 15 40 32 75 36 78 5 3 -5 -32 -21 -77 -79 -216
-130 -488 -128 -686 l1 -117 14 140 c16 178 38 311 74 450 33 128 87 282 103
292 7 4 8 0 2 -13 -48 -116 -122 -407 -130 -515 -4 -55 -2 -50 14 36 22 119
52 240 87 350 88 274 273 574 489 791 358 360 726 547 1239 629 146 24 450 16
606 -15 211 -42 378 -95 545 -174 272 -129 570 -370 743 -599 244 -324 374
-636 427 -1022 30 -215 12 -576 -40 -802 -22 -96 -92 -304 -129 -385 -77 -169
-222 -391 -357 -548 -79 -92 -61 -80 70 45 86 83 91 73 12 -30 -110 -144 -272
-292 -444 -406 -51 -34 -105 -74 -122 -89 -16 -16 -59 -44 -95 -64 -104 -57
-57 -42 59 20 295 155 530 355 731 621 105 139 246 418 313 619 98 295 129
497 125 818 -1 121 -6 208 -9 195 -6 -21 -7 -21 -8 -3 -1 11 4 25 9 30 7 7 7
29 -1 68 -5 31 -8 63 -6 69 2 7 9 -18 16 -55 62 -353 28 -794 -89 -1148 -38
-116 -154 -372 -171 -378 -5 -2 -9 -10 -9 -17 0 -17 -107 -180 -178 -269 -86
-111 -296 -314 -415 -403 -311 -232 -667 -371 -1092 -426 -25 -3 -23 -4 10 -5
53 -2 206 23 329 54 54 14 100 23 103 21 4 -5 -157 -49 -242 -68 -84 -17 -247
-39 -302 -39 -28 0 -55 -5 -59 -12 -10 -16 167 -4 311 21 682 119 1252 517
1593 1114 97 171 203 445 207 537 3 49 40 223 55 249 18 35 31 333 21 482 -35
492 -167 857 -443 1228 -93 124 -316 347 -440 439 -317 235 -656 376 -1041
433 -157 23 -425 24 -587 3z m625 -24 c8 -13 -25 -13 -45 0 -12 8 -9 10 12 10
15 0 30 -4 33 -10z m128 -27 c-7 -2 -19 -2 -25 0 -7 3 -2 5 12 5 14 0 19 -2
13 -5z m102 -22 c39 -11 90 -29 115 -41 25 -11 36 -18 26 -15 -10 3 -60 17
-110 31 -87 25 -133 43 -111 44 6 0 42 -9 80 -19z m750 -397 c44 -34 112 -95
150 -135 70 -73 70 -73 -20 12 -49 46 -132 115 -182 153 -51 38 -93 71 -93 73
0 6 55 -33 145 -103z m599 -734 c53 -104 110 -248 121 -305 3 -16 -10 11 -28
60 -47 121 -106 249 -167 355 -27 48 -50 91 -50 96 1 17 71 -101 124 -206z
m146 -384 c0 -26 -6 -18 -14 19 -5 22 -4 26 4 15 5 -8 10 -24 10 -34z m77
-1268 c-3 -8 -6 -5 -6 6 -1 11 2 17 5 13 3 -3 4 -12 1 -19z m-243 -555 c-81
-141 -223 -320 -350 -445 -109 -106 -272 -238 -339 -274 -65 -35 -54 -25 94
87 238 179 443 401 590 642 33 54 38 46 5 -10z m-744 -748 c0 -2 -10 -9 -22
-15 -22 -11 -22 -10 -4 4 21 17 26 19 26 11z m-50 -30 c0 -2 -10 -9 -22 -15
-22 -11 -22 -10 -4 4 21 17 26 19 26 11z"/>
<path d="M2265 4284 c-185 -20 -406 -88 -600 -184 -465 -231 -808 -650 -945
-1151 -71 -263 -79 -588 -20 -861 133 -614 599 -1134 1190 -1328 230 -76 293
-85 585 -85 236 0 270 2 365 23 350 78 651 238 901 479 499 481 675 1214 452
1882 -87 261 -212 466 -408 670 -260 270 -573 446 -939 528 -95 21 -142 25
-326 28 -118 1 -233 1 -255 -1z m138 -390 c44 -22 392 -213 742 -407 160 -89
318 -176 353 -195 l62 -33 0 -71 0 -70 -27 6 c-16 4 -53 11 -83 17 -81 14
-329 139 -811 409 -80 44 -175 95 -211 111 l-65 31 -51 -31 c-29 -17 -52 -28
-52 -24 0 3 -8 -1 -18 -10 -18 -17 -127 -70 -151 -73 -8 -2 -18 -9 -22 -16 -5
-7 -9 -10 -9 -6 0 6 -162 -75 -363 -181 -81 -42 -105 -49 -124 -30 -6 6 -17
12 -24 13 -22 5 -52 16 -80 30 -35 18 -102 10 -161 -20 -27 -14 -48 -23 -48
-20 0 14 249 149 764 415 99 51 198 104 220 118 46 29 95 52 114 53 7 0 27 -7
45 -16z m1123 -197 c5 -6 11 -251 7 -268 -6 -20 -6 -20 -27 -1 -11 11 -66 43
-121 71 -141 74 -142 74 -148 150 l-5 64 146 -7 c80 -4 147 -8 148 -9z m-1092
-190 c41 -29 67 -93 56 -140 -4 -21 -14 -44 -21 -53 -35 -42 -112 -56 -159
-29 -14 8 -21 14 -16 15 6 0 -2 13 -17 28 -111 116 26 272 157 179z m-1099
-387 c22 -5 50 -7 61 -4 14 4 24 -2 34 -21 8 -14 43 -52 79 -83 37 -31 126
-115 199 -186 l133 -130 34 18 c19 10 62 46 97 79 61 59 183 171 223 207 11 9
24 18 28 18 4 1 17 11 27 24 11 13 19 19 20 15 0 -4 19 3 43 17 23 13 61 27
83 31 58 9 51 91 58 -762 1 -183 -1 -333 -5 -333 -4 0 -11 5 -14 10 -3 6 -28
10 -54 10 -41 0 -50 4 -61 25 -13 25 -60 36 -60 14 0 -6 -6 -9 -12 -7 -10 4
-14 83 -18 332 l-5 327 -173 -165 c-95 -92 -176 -166 -180 -166 -13 0 -94 73
-230 208 -74 73 -137 132 -142 132 -17 0 -19 -76 -13 -392 5 -250 3 -329 -5
-324 -8 5 -12 40 -12 100 0 51 -3 121 -6 155 -6 55 -10 64 -36 77 -27 14 -61
40 -93 71 -7 7 -15 9 -19 6 -3 -4 -6 -1 -6 5 0 7 -7 12 -15 12 -10 0 -16 -11
-17 -32 -5 -106 -16 183 -17 436 -1 275 0 298 16 292 9 -4 35 -11 58 -16z
m1538 -147 c4 -75 7 -169 7 -209 0 -48 4 -73 13 -76 6 -3 114 -6 240 -7 l227
-2 -6 190 -7 191 99 -6 c55 -3 104 -7 110 -9 14 -4 22 -183 31 -679 4 -274 3
-377 -5 -372 -6 3 -53 7 -105 7 l-95 0 -4 37 c-3 20 -5 91 -6 157 -1 66 -5
154 -8 196 l-6 76 -127 6 c-69 4 -177 7 -239 7 l-113 0 3 -237 c3 -208 1 -237
-12 -233 -8 2 -58 5 -110 7 l-95 2 -2 278 c-2 153 -4 398 -5 546 l-3 267 106
0 106 0 6 -137z m-1606 -755 c-2 -18 -4 -4 -4 32 0 36 2 50 4 33 2 -18 2 -48
0 -65z m0 -60 c-3 -8 -6 -5 -6 6 -1 11 2 17 5 13 3 -3 4 -12 1 -19z m2557 -20
c28 -40 13 -97 -31 -117 -66 -30 -130 82 -71 123 33 24 84 20 102 -6z m-2072
-419 l3 -91 24 33 c16 21 20 34 13 37 -27 9 -9 22 28 22 22 0 40 -2 40 -4 0
-3 -14 -18 -31 -35 l-30 -31 28 -51 c15 -28 33 -54 40 -56 21 -8 15 -23 -10
-23 -31 0 -62 24 -77 59 -7 17 -16 28 -21 25 -15 -9 -10 -54 6 -60 32 -13 13
-24 -40 -24 -53 0 -72 11 -40 24 12 4 15 27 15 121 0 94 -3 117 -15 121 -28
11 -15 24 25 24 l39 0 3 -91z m483 66 c0 -22 -31 -33 -48 -16 -7 7 -6 15 3 26
17 21 45 15 45 -10z m-954 -80 c12 -47 25 -85 29 -85 4 0 10 14 14 30 3 17 13
55 22 85 l15 55 50 0 c27 0 49 -4 49 -10 0 -5 -7 -10 -15 -10 -12 0 -15 -19
-15 -115 0 -96 3 -115 15 -115 8 0 15 -4 15 -10 0 -5 -25 -10 -55 -10 -49 0
-74 12 -45 22 7 2 10 37 8 93 l-3 90 -26 -100 c-35 -137 -48 -137 -87 2 l-31
108 0 -97 c-1 -59 3 -98 9 -98 6 0 10 -4 10 -10 0 -5 -18 -10 -40 -10 -22 0
-40 5 -40 10 0 6 7 10 15 10 12 0 15 19 15 115 0 96 -3 115 -15 115 -8 0 -15
5 -15 10 0 6 22 10 49 10 l49 0 23 -85z m1329 75 c0 -5 -4 -10 -10 -10 -5 0
-10 -22 -10 -50 l0 -50 40 0 40 0 0 50 c0 28 -4 50 -10 50 -5 0 -10 5 -10 10
0 6 25 10 55 10 30 0 55 -4 55 -10 0 -5 -7 -10 -15 -10 -12 0 -15 -19 -15
-115 0 -96 3 -115 15 -115 8 0 15 -4 15 -10 0 -5 -25 -10 -55 -10 -30 0 -55 5
-55 10 0 6 5 10 10 10 6 0 10 25 10 55 l0 55 -40 0 -40 0 0 -55 c0 -30 5 -55
10 -55 6 0 10 -4 10 -10 0 -5 -25 -10 -55 -10 -30 0 -55 5 -55 10 0 6 7 10 15
10 12 0 15 19 15 115 0 96 -3 115 -15 115 -8 0 -15 5 -15 10 0 6 25 10 55 10
30 0 55 -4 55 -10z m-260 -35 c0 -20 5 -25 25 -25 14 0 25 -4 25 -10 0 -5 -11
-10 -25 -10 -26 0 -26 -1 -23 -72 3 -67 5 -73 26 -76 40 -6 26 -32 -18 -32
-50 0 -60 17 -60 109 0 46 -4 71 -12 74 -9 3 -6 10 10 22 12 9 22 23 22 31 0
8 7 14 15 14 9 0 15 -9 15 -25z m-733 -36 c9 -8 13 -36 13 -85 0 -40 5 -76 10
-79 20 -12 10 -25 -19 -25 -16 0 -31 6 -34 13 -4 10 -7 10 -18 0 -20 -20 -67
-16 -79 6 -14 28 -12 66 4 80 8 7 31 15 51 18 32 5 36 9 33 32 -3 29 -38 44
-38 16 0 -11 -7 -15 -22 -13 -30 4 -29 29 2 45 27 14 74 10 97 -8z m411 -3 c7
-7 15 -29 19 -49 l6 -37 -58 0 -57 0 7 -27 c3 -16 13 -35 21 -43 13 -13 18
-13 44 2 22 12 30 14 30 5 0 -39 -81 -51 -120 -19 -28 22 -38 104 -18 142 25
47 91 61 126 26z m889 3 c9 -8 13 -36 13 -85 0 -40 5 -76 10 -79 20 -12 10
-25 -19 -25 -16 0 -31 6 -34 13 -4 10 -7 10 -18 0 -20 -20 -67 -16 -79 6 -14
28 -12 66 4 80 8 7 31 15 51 18 32 5 36 9 33 32 -4 32 -33 40 -41 11 -5 -19
-9 -20 -27 -10 -26 14 -22 31 11 48 26 13 74 9 96 -9z m228 -12 c21 -29 20
-126 -1 -156 -13 -19 -24 -22 -55 -19 -38 3 -39 3 -39 -30 0 -20 6 -35 15 -38
32 -13 13 -24 -40 -24 -56 0 -67 8 -40 30 12 10 15 37 15 122 0 87 -3 110 -15
114 -27 11 -16 24 20 24 19 0 35 -4 35 -9 0 -6 12 -4 26 3 31 17 60 10 79 -17z
m200 10 c24 -20 27 -30 27 -85 0 -46 -5 -68 -18 -83 -19 -21 -64 -25 -82 -7
-9 9 -12 3 -12 -30 0 -29 5 -45 15 -48 32 -13 13 -24 -40 -24 -53 0 -72 11
-40 24 12 4 15 27 15 120 0 66 -4 117 -10 121 -5 3 -10 10 -10 16 0 13 58 11
62 -3 3 -8 11 -7 28 5 31 22 34 21 65 -6z m196 -3 c10 -9 19 -31 21 -50 l4
-34 -53 0 c-49 0 -53 -2 -53 -24 0 -45 45 -71 70 -41 14 17 30 20 30 6 0 -21
-33 -41 -68 -41 -56 0 -82 31 -82 97 0 30 5 63 11 74 21 40 83 46 120 13z
m209 6 c16 -16 20 -33 20 -95 0 -43 4 -75 10 -75 6 0 10 -4 10 -10 0 -5 -16
-10 -35 -10 l-35 0 0 73 c0 125 -46 149 -57 30 -4 -46 -2 -63 11 -75 24 -25
20 -28 -34 -28 -27 0 -50 5 -50 10 0 6 5 10 10 10 6 0 10 33 10 80 0 47 -4 80
-10 80 -5 0 -10 5 -10 10 0 6 16 10 35 10 19 0 35 -5 35 -11 0 -5 10 -3 22 5
30 21 44 20 68 -4z m-1510 -75 c0 -67 3 -87 15 -91 32 -13 13 -24 -40 -24 -53
0 -72 11 -40 24 11 4 15 22 15 76 0 54 -4 72 -15 76 -28 11 -15 24 25 24 l40
0 0 -85z m90 -350 c0 -84 -2 -95 -17 -95 -16 0 -18 10 -15 95 3 74 6 95 18 95
11 0 14 -19 14 -95z m-405 -10 c0 -69 -3 -85 -15 -85 -12 0 -15 16 -15 85 0
69 3 85 15 85 12 0 15 -16 15 -85z m56 75 c22 -12 25 -43 5 -59 -12 -10 -10
-19 11 -56 20 -37 22 -45 9 -45 -8 0 -24 19 -34 43 -16 37 -17 45 -5 64 13 19
12 24 -6 42 -22 22 -12 28 20 11z m461 -75 c3 -76 1 -85 -14 -85 -16 0 -18 11
-18 85 0 67 3 85 14 85 11 0 15 -20 18 -85z m78 68 c0 -11 -3 -14 -8 -7 -4 6
-14 14 -22 17 -10 4 -8 6 8 6 15 1 22 -5 22 -16z m182 -140 c8 -10 5 -13 -11
-13 -19 0 -21 6 -21 54 0 30 -5 58 -11 61 -6 5 -4 12 8 20 17 13 18 9 21 -48
2 -34 8 -67 14 -74z m208 68 c0 -46 4 -71 13 -75 6 -3 1 -4 -13 -3 -23 2 -25
7 -30 65 -5 58 2 82 22 82 4 0 8 -31 8 -69z m-776 23 c19 -19 20 -24 3 -24 -7
0 -18 9 -25 20 -15 24 0 27 22 4z m124 4 c15 -20 20 -108 5 -108 -6 0 -15 5
-19 11 -4 8 -9 8 -17 0 -17 -17 -54 -13 -61 6 -4 10 1 24 12 36 19 19 20 19
15 -7 -4 -21 -1 -26 15 -26 22 0 32 18 32 60 0 22 -5 30 -22 33 -21 4 -20 4 3
6 15 0 31 -5 37 -11z m308 4 c-7 -12 6 -26 37 -40 35 -15 44 -39 24 -59 -15
-15 -16 -15 -11 3 4 15 -3 24 -30 37 -34 16 -47 43 -29 60 9 10 15 9 9 -1z
m64 -2 c0 -5 -2 -10 -4 -10 -3 0 -8 5 -11 10 -3 6 -1 10 4 10 6 0 11 -4 11
-10z m210 -9 c16 -31 13 -101 -5 -101 -8 0 -15 7 -15 16 0 14 -2 14 -16 -1
-23 -22 -58 -15 -62 12 -2 14 4 26 20 34 21 11 22 11 9 -5 -11 -13 -11 -20 -2
-29 20 -20 46 5 46 44 0 27 -5 34 -25 40 -23 7 -23 7 7 8 22 1 35 -5 43 -18z
m218 7 c16 -16 15 -28 -1 -28 -7 0 -18 9 -25 20 -10 16 -10 20 1 20 7 0 18 -5
25 -12z m-985 -76 c6 -8 23 -12 39 -10 22 4 25 2 16 -9 -19 -23 -70 -12 -87
19 -13 23 -13 30 -1 54 l15 28 3 -35 c2 -19 9 -40 15 -47z m437 57 c0 -18 -2
-20 -15 -9 -13 11 -13 15 -3 21 18 12 18 12 18 -12z m472 -9 c-6 -40 14 -63
50 -58 30 5 38 -6 12 -16 -48 -18 -86 3 -86 49 0 20 17 55 26 55 2 0 1 -14 -2
-30z m-452 -65 c0 -10 -10 -15 -27 -15 l-28 0 25 14 c14 8 26 14 28 15 1 1 2
-6 2 -14z m46 -12 c-7 -7 -26 7 -26 19 0 6 6 6 15 -2 9 -7 13 -15 11 -17z"/>
<path d="M2348 3283 c12 -2 30 -2 40 0 9 3 -1 5 -23 4 -22 0 -30 -2 -17 -4z"/>
<path d="M1874 2414 c-18 -14 -18 -15 4 -4 12 6 22 13 22 15 0 8 -5 6 -26 -11z"/>
<path d="M3744 2142 c-23 -15 -35 -51 -24 -72 25 -47 83 -49 101 -3 13 34 12
40 -11 63 -21 21 -47 25 -66 12z m50 -25 c15 -11 17 -17 7 -35 -12 -22 -51
-31 -51 -12 0 6 6 10 14 10 24 0 30 22 11 37 -11 7 -14 13 -9 13 6 0 18 -6 28
-13z"/>
<path d="M1542 1608 c-14 -14 -15 -37 -3 -57 14 -22 41 5 41 40 0 30 -17 38
-38 17z"/>
<path d="M1950 1674 c-14 -35 -14 -34 20 -34 30 0 37 11 24 44 -9 24 -33 19
-44 -10z"/>
<path d="M2842 1608 c-14 -14 -15 -37 -3 -57 14 -22 41 5 41 40 0 30 -17 38
-38 17z"/>
<path d="M3062 1688 c-18 -18 -15 -123 4 -139 14 -11 18 -10 30 6 26 36 14
145 -16 145 -3 0 -11 -5 -18 -12z"/>
<path d="M3270 1681 c-15 -28 -12 -104 4 -126 12 -16 16 -17 30 -6 16 14 23
102 10 135 -8 22 -31 20 -44 -3z"/>
<path d="M3466 1685 c-12 -32 -6 -45 20 -45 22 0 25 4 22 27 -3 31 -32 43 -42
18z"/>
<path d="M343 2685 c0 -33 2 -45 4 -27 2 18 2 45 0 60 -2 15 -4 0 -4 -33z"/>
<path d="M3824 938 l-19 -23 23 19 c21 18 27 26 19 26 -2 0 -12 -10 -23 -22z"/>
<path d="M2518 253 c23 -2 59 -2 80 0 20 2 1 4 -43 4 -44 0 -61 -2 -37 -4z"/>
</g>
</svg>
